<svg version="1.1" xmlns="http://www.w3.org/2000/svg" xmlns:xlink="http://www.w3.org/1999/xlink" width="646.39614" height="581.997" viewBox="0,0,646.39614,581.997"><defs><radialGradient cx="240" cy="180" r="323.19807" gradientUnits="userSpaceOnUse" id="color-1"><stop offset="0" stop-color="#000000" stop-opacity="0"/><stop offset="1" stop-color="#000000"/></radialGradient><radialGradient cx="247.50751" cy="180" r="274.00252" gradientUnits="userSpaceOnUse" id="color-2"><stop offset="0" stop-color="#000000" stop-opacity="0"/><stop offset="1" stop-color="#000000"/></radialGradient></defs><g transform="translate(83.19807,110.9985)"><g data-paper-data="{&quot;isPaintingLayer&quot;:true}" fill-rule="nonzero" stroke-linecap="butt" stroke-linejoin="miter" stroke-miterlimit="10" stroke-dasharray="" stroke-dashoffset="0" style="mix-blend-mode: normal"><path d="M-83.19807,180c0,-160.71403 144.70071,-290.9985 323.19807,-290.9985c178.49737,0 323.19807,130.28447 323.19807,290.9985c0,160.71403 -144.70071,290.9985 -323.19807,290.9985c-178.49736,0 -323.19807,-130.28447 -323.19807,-290.9985z" fill="url(#color-1)" stroke="none" stroke-width="NaN"/><path d="M-53.59595,-36.69293c50.10685,-58.43815 541.35173,-63.3906 591.57868,-11.64553c42.1025,43.37506 11.96614,418.50206 -34.67625,462.73564c-49.9266,47.34817 -504.16433,38.26992 -554.31634,-19.45068c-36.38252,-41.87311 -38.31459,-389.97032 -2.58609,-431.63943z" fill="url(#color-2)" stroke="none" stroke-width="NaN"/><text transform="translate(24.95563,75.69648) scale(0.81922,0.81922)" font-size="40" xml:space="preserve" fill="#ff0000" fill-rule="nonzero" stroke="#313131" stroke-width="10" stroke-linecap="butt" stroke-linejoin="miter" stroke-miterlimit="10" stroke-dasharray="" stroke-dashoffset="0" font-family="Pixel" font-weight="normal" text-anchor="start" style="mix-blend-mode: normal"><tspan x="0" dy="0">YOU SAVED THE TITANIC!</tspan></text><text transform="translate(24.95563,75.96473) scale(0.81922,0.81922)" font-size="40" xml:space="preserve" fill="#ffffff" fill-rule="nonzero" stroke="#000000" stroke-width="0" stroke-linecap="butt" stroke-linejoin="miter" stroke-miterlimit="10" stroke-dasharray="" stroke-dashoffset="0" font-family="Pixel" font-weight="normal" text-anchor="start" style="mix-blend-mode: normal"><tspan x="0" dy="0">YOU SAVED THE ICEBERG</tspan></text></g></g></svg>